<svg width="273" height="11" xmlns="http://www.w3.org/2000/svg">
  <g stroke="#67BECE" stroke-width="4" fill="none" fill-rule="evenodd" stroke-linecap="round" stroke-linejoin="round">
    <path d="M25.053 8.49l5.587-5.587 5.587 5.588m0-.001l5.585-5.587 5.59 5.588m0-.001l5.588-5.587 5.586 5.588m0-.001l5.588-5.587 5.587 5.588m0-.001l5.587-5.587 5.588 5.588M2.702 8.49l5.587-5.587 5.588 5.588m0-.001l5.588-5.587 5.588 5.588M80.926 8.49l5.587-5.587 5.589 5.588m0-.001l5.586-5.587 5.587 5.588m0-.001l5.587-5.587 5.589 5.588m0-.001l5.587-5.587 5.587 5.588m0-.001l5.588-5.587 5.587 5.588M159.15 8.49l5.587-5.587 5.587 5.588m0-.001l5.586-5.587 5.59 5.588m0-.001l5.588-5.587 5.586 5.588m0-.001l5.588-5.587 5.587 5.588m0-.001l5.587-5.587 5.587 5.588M136.8 8.49l5.587-5.587 5.588 5.588m0-.001l5.587-5.587 5.588 5.588M215.023 8.49l5.587-5.587 5.589 5.588m0-.001l5.586-5.587 5.588 5.588m0-.001l5.587-5.587 5.589 5.588m0-.001l5.587-5.587 5.587 5.588m0-.001l5.588-5.587 5.586 5.588"/>
  </g>
</svg>
